<?xml version="1.0" encoding="utf-8"?>
<!-- Generator: Adobe Illustrator 24.1.2, SVG Export Plug-In . SVG Version: 6.00 Build 0)  -->
<svg width="16px" height="12px" version="1.1" id="Calque_1" xmlns="http://www.w3.org/2000/svg" xmlns:xlink="http://www.w3.org/1999/xlink" x="0px" y="0px"
	 viewBox="0 0 315.97 232.05" style="enable-background:new 0 0 315.97 232.05;" xml:space="preserve">
<style type="text/css">
	.st0{fill:#CEAE60;}
</style>
<g>
	<path class="st0" d="M51.79,0.01c2.61-0.02,5.23-0.02,7.84,0.08c2.09,3.73,4.4,7.33,6.67,10.95c70-0.03,140.01-0.01,210.01-0.01
		c-0.04-3.02-0.04-6.05-0.02-9.07c7.5-0.07,14.99,0.04,22.48-0.01c1.67,3.08,3.32,6.17,5.16,9.16c4-0.15,8.01-0.13,12.02-0.06
		c0.03,19.01,0.01,38.01,0.01,57.02c0.09,3.84-2,7.63-5.47,9.37c-4.34,2.7-9.61,2.03-14.47,2.05c-11.94,0.03-23.88-0.03-35.82,0.02
		c-1.11,6.63-6.06,12.95-13.1,13.56c-10.03,0.33-20.07,0.04-30.11,0.15c-1.16,0.05-2.7,0.14-3.26,1.35
		c-4.94,10.89-9.13,22.13-14.15,32.98c-5.07,7.64-10.64,14.94-15.85,22.5c-25.14,0.06-50.29-0.02-75.43,0.04
		c-7.81,20.97-13.66,42.6-19.94,64.06c-2.08,5.04,1.08,10.4-0.47,15.49c-1.49,2.21-4.44,2.38-6.84,2.41
		c-22.69-0.04-45.38,0.03-68.06-0.04c-6.47-0.49-14.01-5.87-12.88-13.09c0.78-11.29,3.79-22.28,7.9-32.8
		c4.5-12.12,9.08-24.21,13.97-36.18c4.52-8.68,11.67-16.01,14.48-25.55c1.01-4.45-0.13-9.03-0.79-13.45
		c-1.46-6.98-3.78-14.41-9.53-19.07c-6.64-5.37-16.36-0.61-23.1-5.84c-1.94-1.35-1.56-4.93,1.05-5.2
		c5.68-1.44,12.22-0.85,16.99-4.82c2.77-2.63,6.12-5.73,5.37-9.96c-0.57-6.54,1.36-13.61-1.93-19.64
		c-3.02-6.72-5.71-13.58-8.74-20.29c1.56-3.53,3.12-7.99,7.28-9.12c2.2-0.21,3.88,1.51,5.53,2.7c2.04,0.06,4.09,0.08,6.14,0.08
		c2.98-6.53,10.42-8.66,17.03-8.92C51.76,7.24,51.78,3.63,51.79,0.01 M120.91,104.85c-2.19,7.27-4.09,15.64-0.4,22.76
		c17.08,0.03,34.18,0.11,51.26-0.03c4.2-4.84,8.2-10.19,10.47-16.28c2.51-6.02,5.14-12,7.55-18.06
		c-19.27-0.15-38.55-0.14-57.83-0.06C125.78,93.37,122.82,99.86,120.91,104.85z"/>
</g>
</svg>
